{"title":"Whitechapel S03","uid":10113717,"size":2159340443,"categoryP":"video","categoryS":"tv_shows","magnet":"?xt=urn:btih:f247951d84a7b9f19647acb2918b22214bfb31f1&amp;dn=Whitechapel+S03&amp;tr=udp%3A%2F%2Ftracker.openbittorrent.com%3A80&amp;tr=udp%3A%2F%2Fopen.demonii.com%3A1337&amp;tr=udp%3A%2F%2Ftracker.coppersurfer.tk%3A6969&amp;tr=udp%3A%2F%2Fexodus.desync.com%3A6969","seeders":11,"leechers":1,"uploader":"RedBaron58","files":6,"time":1399510550,"description":"Whitechapel series 3 DVDRip x264 mp4 \n\n &lt;a href=&quot;\nhttp://www.imdb.com/title/tt1186356/&quot; rel=&quot;nofollow&quot; target=&quot;_NEW&quot;&gt;\nhttp://www.imdb.com/title/tt1186356/&lt;/a&gt;\n\n\n\nThank you for your kind comments and thumbs ups on my other torrents, your feedback is welcome.\n\n\nAbout the Series:\nThree separate 2-part stories.\n\nCase 1\nDI Chandler and DS Miles investigate the slaughter of four people at a tailor's fortified workshop.\nCase 2\na fox runs through Whitechapel with a human arm in its mouth. Soon, more body parts from the same victim are found.\nCase 3\nWhen a babysitter is murdered, the only witness thinks she saw the bogeyman do it.\n\nI hope you enjoy.\n\nTechnical (All episodes encoded to same settings)\n\nGeneral\nComplete name                            : G:Whitechapel S03Whitechapel S03E01 Case 1 pt1 x264 RB58.mp4\nFormat                                   : MPEG-4\nFormat profile                           : Base Media / Version 2\nCodec ID                                 : mp42\nFile size                                : 349 MiB\nDuration                                 : 46mn 5s\nOverall bit rate mode                    : Variable\nOverall bit rate                         : 1 058 Kbps\nEncoded date                             : UTC 2014-05-04 17:39:13\nTagged date                              : UTC 2014-05-04 17:49:43\nWriting application                      : HandBrake 0.9.8 2012071700\n\nVideo\nID                                       : 1\nFormat                                   : AVC\nFormat/Info                              : Advanced Video Codec\nFormat profile                           : &lt;a class=&quot;__cf_email__&quot; href=&quot;/cdn-cgi/l/email-protection&quot; data-cfemail=&quot;99d4f8f0f7d9d5aab7a9&quot;&gt;[email&amp;#160;protected]&lt;/a&gt;&lt;script cf-hash='f9e31' type=&quot;text/javascript&quot;&gt;\n/* &lt;![CDATA[ */!function(){try{var t=&quot;currentScript&quot;in document?document.currentScript:function(){for(var t=document.getElementsByTagName(&quot;script&quot;),e=t.length;e--;)if(t[e].getAttribute(&quot;cf-hash&quot;))return t[e]}();if(t&amp;&amp;t.previousSibling){var e,r,n,i,c=t.previousSibling,a=c.getAttribute(&quot;data-cfemail&quot;);if(a){for(e=&quot;&quot;,r=parseInt(a.substr(0,2),16),n=2;a.length-n;n+=2)i=parseInt(a.substr(n,2),16)^r,e+=String.fromCharCode(i);e=document.createTextNode(e),c.parentNode.replaceChild(e,c)}}}catch(u){}}();/* ]]&gt; */&lt;/script&gt;\nFormat settings, CABAC                   : Yes\nFormat settings, ReFrames                : 4 frames\nCodec ID                                 : avc1\nCodec ID/Info                            : Advanced Video Coding\nDuration                                 : 46mn 5s\nBit rate mode                            : Variable\nBit rate                                 : 900 Kbps\nWidth                                    : 720 pixels\nHeight                                   : 568 pixels\nDisplay aspect ratio                     : 16:9\nFrame rate mode                          : Constant\nFrame rate                               : 25.000 fps\nColor space                              : YUV\nChroma subsampling                       : 4:2:0\nBit depth                                : 8 bits\nScan type                                : Progressive\nBits/(Pixel*Frame)                       : 0.088\nStream size                              : 297 MiB (85%)\nWriting library                          : x264 core 120\nEncoding settings                        : cabac=1 / ref=1 / deblock=1:0:0 \nEncoded date                             : UTC 2014-05-04 17:39:13\nTagged date                              : UTC 2014-05-04 17:49:43\nColor primaries                          : BT.601 NTSC\nTransfer characteristics                 : BT.709\nMatrix coefficients                      : BT.601\n\nAudio\nID                                       : 2\nFormat                                   : MPEG Audio\nFormat version                           : Version 1\nFormat profile                           : Layer 3\nCodec ID                                 : 69\nDuration                                 : 46mn 5s\nBit rate mode                            : Variable\nBit rate                                 : 154 Kbps\nMaximum bit rate                         : 178 Kbps\nChannel(s)                               : 2 channels\nSampling rate                            : 48.0 KHz\nCompression mode                         : Lossy\nDelay relative to video                  : 80ms\nStream size                              : 50.8 MiB (15%)\nLanguage                                 : English\nEncoded date                             : UTC 2014-05-04 17:39:13\nTagged date                              : UTC 2014-05-04 17:49:42","torrent":{"xt":"urn:btih:f247951d84a7b9f19647acb2918b22214bfb31f1","amp;dn":"Whitechapel+S03","amp;tr":["udp%3A%2F%2Ftracker.openbittorrent.com%3A80","udp%3A%2F%2Fopen.demonii.com%3A1337","udp%3A%2F%2Ftracker.coppersurfer.tk%3A6969","udp%3A%2F%2Fexodus.desync.com%3A6969"],"infoHash":"f247951d84a7b9f19647acb2918b22214bfb31f1","infoHashBuffer":{"type":"Buffer","data":[242,71,149,29,132,167,185,241,150,71,172,178,145,139,34,33,75,251,49,241]},"announce":[],"urlList":[]}}